<svg xmlns="http://www.w3.org/2000/svg" width="64" height="64" viewBox="0 0 64 64">
  <defs>
    <radialGradient id="g" cx="50%" cy="40%" r="60%">
      <stop offset="0%" stop-color="#f0ebe0"/>
      <stop offset="100%" stop-color="#8a8276"/>
    </radialGradient>
  </defs>
  <path d="M32,8 C18,8 10,18 10,30 C10,38 14,44 18,46 L18,52 C18,54 20,56 22,56 L26,56 L26,50 L30,50 L30,56 L34,56 L34,50 L38,50 L38,56 L42,56 C44,56 46,54 46,52 L46,46 C50,44 54,38 54,30 C54,18 46,8 32,8 Z"
        fill="url(#g)" stroke="#2a2520" stroke-width="2"/>
  <ellipse cx="23" cy="30" rx="5" ry="6" fill="#1a0a08"/>
  <ellipse cx="41" cy="30" rx="5" ry="6" fill="#1a0a08"/>
  <circle cx="23" cy="30" r="1.5" fill="#c41a1a"/>
  <circle cx="41" cy="30" r="1.5" fill="#c41a1a"/>
  <path d="M28,40 L32,36 L36,40 L34,44 L30,44 Z" fill="#2a2520"/>
  <line x1="26" y1="50" x2="26" y2="56" stroke="#2a2520" stroke-width="1"/>
  <line x1="32" y1="50" x2="32" y2="56" stroke="#2a2520" stroke-width="1"/>
  <line x1="38" y1="50" x2="38" y2="56" stroke="#2a2520" stroke-width="1"/>
</svg>
